<svg width="34" height="34" viewBox="0 0 34 34" fill="none" xmlns="http://www.w3.org/2000/svg">
<rect width="34" height="34" rx="17" fill="#A864DD"/>
<ellipse cx="18.4562" cy="27.16" rx="1.13592" ry="1.45146" fill="white"/>
<path d="M15.7428 27.034C15.7428 27.8356 15.2342 28.4854 14.6069 28.4854C13.9795 28.4854 13.4709 27.8356 13.4709 27.034C13.4709 26.2324 13.9795 25.5825 14.6069 25.5825C15.2342 25.5825 15.7428 26.2324 15.7428 27.034Z" fill="white"/>
<ellipse cx="15.1747" cy="24.8886" rx="1.8932" ry="2.58738" fill="white"/>
<ellipse cx="18.0778" cy="24.8886" rx="1.8932" ry="2.58738" fill="white"/>
<ellipse cx="19.9709" cy="21.2912" rx="1.64078" ry="1.38835" fill="white"/>
<ellipse cx="13.4707" cy="18.9565" rx="2.08252" ry="2.33495" fill="white"/>
<ellipse cx="19.6553" cy="18.9565" rx="2.08252" ry="2.33495" fill="white"/>
<ellipse cx="16.3738" cy="19.5874" rx="2.08252" ry="2.33495" fill="white"/>
<ellipse cx="13.029" cy="21.2912" rx="1.64078" ry="1.38835" fill="white"/>
<ellipse cx="16.3106" cy="21.8591" rx="3.28155" ry="2.96602" fill="white"/>
<circle cx="13.1554" cy="22.8058" r="1.38835" fill="white"/>
<circle cx="20.0971" cy="22.8058" r="1.38835" fill="white"/>
<ellipse cx="16.437" cy="12.5822" rx="4.6699" ry="5.80583" fill="white"/>
<ellipse cx="11.8932" cy="10.4366" rx="1.8932" ry="2.14563" fill="white"/>
<ellipse cx="12.5243" cy="7.78626" rx="1.76699" ry="2.14563" fill="white"/>
<ellipse cx="17.3203" cy="7.34466" rx="4.29126" ry="3.34466" fill="white"/>
<ellipse cx="21.1068" cy="10.3735" rx="1.8932" ry="2.08252" fill="white"/>
</svg>
