<svg width="34" height="34" viewBox="0 0 34 34" fill="none" xmlns="http://www.w3.org/2000/svg">
<rect width="34" height="34" rx="17" fill="#FEBE67"/>
<path d="M15.5011 6.84073L15.421 10.5689C15.421 10.7159 15.3193 10.9061 15.1281 10.9061H15.0256C14.8344 10.9061 14.7326 10.6972 14.7326 10.5463L14.4267 6.81138C14.3484 6.81173 14.2683 6.81173 14.1846 6.81173C14.0385 6.81173 13.9018 6.81104 13.7723 6.81104L13.4663 10.5975C13.4674 10.7343 13.3653 10.906 13.1741 10.906H13.0716C12.8804 10.906 12.7787 10.6971 12.7787 10.5462L12.6993 6.85552C11.6845 7.0121 11.6848 7.7098 11.6848 10.7661C11.6848 11.7971 12.103 12.6948 12.8498 13.1773C12.9518 13.2433 13.0597 13.3017 13.1741 13.3515C13.2874 13.4006 13.4072 13.4402 13.532 13.4717L13.1889 26.3236C13.1889 26.5919 13.772 26.811 14.0458 26.811H14.4967C14.7706 26.811 15.3536 26.5926 15.3536 26.3243L15.0094 13.4243C15.1353 13.3822 15.2533 13.3281 15.3662 13.2674C15.5051 13.1928 15.6335 13.1048 15.7518 13.0047C16.3522 12.4968 16.6848 11.6846 16.6848 10.7664C16.6848 7.5964 16.6224 6.96409 15.5011 6.84073Z" fill="white"/>
<path d="M18.6848 15.0341V17.0269C18.6848 17.2379 18.7453 17.4333 18.8451 17.6007C19.0136 17.4481 19.2519 17.446 19.3704 17.446C19.4561 17.446 19.5495 17.4513 19.6483 17.4566C19.7527 17.4623 19.8631 17.4683 19.9785 17.4683H20.0896C20.2047 17.4683 20.3155 17.4619 20.4199 17.4566C20.5187 17.4509 20.6121 17.446 20.6977 17.446C20.8167 17.446 21.0546 17.4481 21.223 17.6007C21.3228 17.4332 21.3834 17.2382 21.3834 17.0269V6.62167C19.083 6.59054 18.6848 14.4282 18.6848 15.0341Z" fill="white"/>
<path d="M20.6975 17.8003C20.6175 17.8003 20.5308 17.8053 20.4391 17.8102C20.3287 17.8166 20.2112 17.8226 20.0898 17.8226H19.9783C19.8565 17.8226 19.739 17.8163 19.6289 17.8102C19.5369 17.8049 19.4502 17.8003 19.3705 17.8003C19.2194 17.8003 19.1277 17.8144 19.0742 17.8704C19.0293 17.9174 19.0112 17.9935 19.0112 18.1203V25.9947C19.0112 26.549 19.4452 27.0003 19.9782 27.0003H20.0894C20.6228 27.0003 21.0563 26.5493 21.0563 25.9947V18.1203C21.0563 17.9935 21.0379 17.9174 20.9933 17.8704C20.9403 17.8144 20.849 17.8003 20.6975 17.8003Z" fill="white"/>
</svg>
