<svg width="34" height="34" viewBox="0 0 34 34" fill="none" xmlns="http://www.w3.org/2000/svg">
<rect width="34" height="34" rx="17" fill="#73A065"/>
<path d="M13.865 21.0901V20.1975V19.0816V18.6353H14.3113H14.9808H15.4272L15.8735 19.5279H17.4357L17.6589 18.6353H19.4442V22.206L20.1137 22.8755L21.4528 23.7682L21.2296 24.4377L20.3369 24.884L19.2211 25.7767L18.7747 25.9999H18.1052H15.204L14.5345 25.7767L13.4186 24.884L12.3028 24.4377L12.0796 23.7682L13.4186 22.8755L13.865 22.206V21.0901Z" fill="white"/>
<path d="M15.204 25.9999L14.5345 25.7767L13.4186 24.884L12.3028 24.4377L12.0796 23.7682L13.4186 22.8755L13.865 22.206V21.0901V20.1975V19.0816V18.6353H14.3113H14.9808H15.4272L15.8735 19.5279H17.4357L17.6589 18.6353H19.4442V22.206L20.1137 22.8755L21.4528 23.7682L21.2296 24.4377L20.3369 24.884L19.2211 25.7767L18.7747 25.9999H15.204ZM15.204 25.9999H18.1052" stroke="white"/>
<path d="M12.749 19.0432V19.1469C12.749 19.2479 12.7892 19.3448 12.8606 19.4163C12.9321 19.4877 13.029 19.5278 13.13 19.5278H13.8649H14.3112H15.2039H17.4356H19.0913C19.1772 19.5278 19.2625 19.514 19.344 19.4868L19.5358 19.4229C19.7476 19.3523 19.8905 19.1541 19.8905 18.9308C19.8905 18.6443 20.1228 18.412 20.4093 18.412H20.6716C21.103 18.412 21.4527 18.0623 21.4527 17.6309V17.2961C21.4527 16.9264 21.7525 16.6266 22.1222 16.6266H22.3454C22.5919 16.6266 22.7917 16.4268 22.7917 16.1803C22.7917 15.9338 22.9916 15.7339 23.2381 15.7339H23.4612C23.831 15.7339 24.1308 15.4342 24.1308 15.0644V14.6181C24.1308 14.3716 24.3306 14.1717 24.5771 14.1717C24.8236 14.1717 25.0234 13.9719 25.0234 13.7254V13.5022C25.0234 13.2557 24.8236 13.0559 24.5771 13.0559C24.3306 13.0559 24.1308 12.8561 24.1308 12.6095V11.7169C24.1308 11.4704 23.9309 11.2705 23.6844 11.2705H23.5728C23.3879 11.2705 23.2381 11.1206 23.2381 10.9358C23.2381 10.7509 23.0882 10.601 22.9033 10.601H22.1222C21.8757 10.601 21.6759 10.4012 21.6759 10.1547C21.6759 9.90816 21.476 9.70833 21.2295 9.70833C20.983 9.70833 20.7832 9.50849 20.7832 9.26198C20.7832 9.01548 20.5834 8.81564 20.3369 8.81564C20.0903 8.81564 19.8905 8.61581 19.8905 8.3693C19.8905 8.12279 19.6907 7.92296 19.4442 7.92296H19.221H17.882C17.6355 7.92296 17.4356 7.72312 17.4356 7.47662V7.25344C17.4356 7.13019 17.3357 7.03027 17.2125 7.03027H16.5429C16.2964 7.03027 16.0966 7.23011 16.0966 7.47662C16.0966 7.72312 15.8968 7.92296 15.6503 7.92296H14.3112C14.0647 7.92296 13.8649 8.12279 13.8649 8.3693C13.8649 8.61581 13.6651 8.81564 13.4186 8.81564C13.172 8.81564 12.9722 9.01548 12.9722 9.26198C12.9722 9.50849 12.7724 9.70833 12.5259 9.70833C12.2794 9.70833 12.0795 9.90816 12.0795 10.1547C12.0795 10.4012 11.8797 10.601 11.6332 10.601H10.6289C10.444 10.601 10.2942 10.7509 10.2942 10.9358C10.2942 11.1206 10.1443 11.2705 9.9594 11.2705H9.84782C9.60131 11.2705 9.40147 11.4704 9.40147 11.7169V12.1632V12.6095C9.40147 12.8561 9.20164 13.0559 8.95513 13.0559C8.70862 13.0559 8.50879 13.2557 8.50879 13.5022V13.837C8.50879 14.0219 8.65866 14.1717 8.84355 14.1717C9.02843 14.1717 9.1783 14.3216 9.1783 14.5065V15.2876C9.1783 15.5341 9.37814 15.7339 9.62464 15.7339C9.87115 15.7339 10.071 15.9338 10.071 16.1803C10.071 16.4268 10.2708 16.6266 10.5173 16.6266C10.7638 16.6266 10.9637 16.8265 10.9637 17.073V18.1888C10.9637 18.3121 11.0636 18.412 11.1868 18.412H12.1178C12.4664 18.412 12.749 18.6946 12.749 19.0432Z" fill="white" stroke="white"/>
</svg>
