<svg width="42" height="50" viewBox="0 0 42 50" fill="none" xmlns="http://www.w3.org/2000/svg">
<path d="M19.9773 49.8525L10.6396 30.8108L29.819 31.0663L19.9773 49.8525Z" fill="#FA803F"/>
<path d="M41.3407 20.6704C41.3407 32.0863 32.0863 41.3407 20.6704 41.3407C9.25444 41.3407 0 32.0863 0 20.6704C0 9.25443 9.25444 0 20.6704 0C32.0863 0 41.3407 9.25443 41.3407 20.6704Z" fill="#FA803F"/>
<mask id="mask0_523_6246" style="mask-type:alpha" maskUnits="userSpaceOnUse" x="2" y="2" width="37" height="37">
<path d="M38.7966 20.6703C38.7966 30.6811 30.6811 38.7966 20.6703 38.7966C10.6594 38.7966 2.54395 30.6811 2.54395 20.6703C2.54395 10.6594 10.6594 2.54395 20.6703 2.54395C30.6811 2.54395 38.7966 10.6594 38.7966 20.6703Z" fill="#AEDFFF"/>
</mask>
<g mask="url(#mask0_523_6246)">
<path d="M38.7966 20.6703C38.7966 30.6811 30.6811 38.7966 20.6703 38.7966C10.6594 38.7966 2.54395 30.6811 2.54395 20.6703C2.54395 10.6594 10.6594 2.54395 20.6703 2.54395C30.6811 2.54395 38.7966 10.6594 38.7966 20.6703Z" fill="#AEDFFF"/>
<path d="M37.178 30.046C37.178 34.7063 29.9321 38.7967 20.9938 38.7967C12.0555 38.7967 5.1333 34.3937 5.1333 29.7335C5.1333 25.0733 12.0555 21.6079 20.9938 21.6079C29.9321 21.6079 37.178 25.3858 37.178 30.046Z" fill="#BFD589"/>
</g>
<path d="M16.5362 25.4404V24.1684V22.5784V21.9424H17.1722H18.1263H18.7623L19.3983 23.2144H21.6243L21.9423 21.9424H24.4864V27.0305L25.4404 27.9845L27.3484 29.2565L27.0304 30.2105L25.7584 30.8465L24.1684 32.1186L23.5324 32.4366H22.5783H18.4443L17.4902 32.1186L15.9002 30.8465L14.3102 30.2105L13.9922 29.2565L15.9002 27.9845L16.5362 27.0305V25.4404Z" fill="#B79665"/>
<path d="M18.4443 32.4366L17.4902 32.1186L15.9002 30.8465L14.3102 30.2105L13.9922 29.2565L15.9002 27.9845L16.5362 27.0305V25.4404V24.1684V22.5784V21.9424H17.1722H18.1263H18.7623L19.3983 23.2144H21.6243L21.9423 21.9424H24.4864V27.0305L25.4404 27.9845L27.3484 29.2565L27.0304 30.2105L25.7584 30.8465L24.1684 32.1186L23.5324 32.4366H18.4443ZM18.4443 32.4366H22.5783" stroke="#B79665"/>
<path d="M14.9462 22.5237V22.6714C14.9462 22.8154 15.0034 22.9535 15.1052 23.0553C15.207 23.1571 15.345 23.2143 15.489 23.2143H16.5362H17.1722H18.4442H21.6243H23.9835C24.1059 23.2143 24.2275 23.1946 24.3436 23.1559L24.6169 23.0648C24.9187 22.9642 25.1223 22.6817 25.1223 22.3635C25.1223 21.9552 25.4533 21.6243 25.8616 21.6243H26.2354C26.8501 21.6243 27.3484 21.126 27.3484 20.5113V20.0343C27.3484 19.5074 27.7755 19.0802 28.3024 19.0802H28.6204C28.9717 19.0802 29.2564 18.7955 29.2564 18.4442C29.2564 18.093 29.5412 17.8082 29.8924 17.8082H30.2104C30.7373 17.8082 31.1644 17.3811 31.1644 16.8542V16.2182C31.1644 15.8669 31.4492 15.5822 31.8004 15.5822C32.1517 15.5822 32.4365 15.2974 32.4365 14.9462V14.6282C32.4365 14.2769 32.1517 13.9922 31.8004 13.9922C31.4492 13.9922 31.1644 13.7074 31.1644 13.3561V12.0841C31.1644 11.7329 30.8797 11.4481 30.5284 11.4481H30.3694C30.106 11.4481 29.8924 11.2345 29.8924 10.9711C29.8924 10.7077 29.6789 10.4941 29.4154 10.4941H28.3024C27.9511 10.4941 27.6664 10.2093 27.6664 9.85808C27.6664 9.50682 27.3816 9.22207 27.0304 9.22207C26.6791 9.22207 26.3944 8.93732 26.3944 8.58606C26.3944 8.2348 26.1096 7.95005 25.7583 7.95005C25.4071 7.95005 25.1223 7.6653 25.1223 7.31404C25.1223 6.96278 24.8376 6.67803 24.4863 6.67803H24.1683H22.2603C21.909 6.67803 21.6243 6.39328 21.6243 6.04202V5.72401C21.6243 5.54838 21.4819 5.40601 21.3063 5.40601H20.3523C20.001 5.40601 19.7162 5.69076 19.7162 6.04202C19.7162 6.39328 19.4315 6.67803 19.0802 6.67803H17.1722C16.8209 6.67803 16.5362 6.96278 16.5362 7.31404C16.5362 7.6653 16.2514 7.95005 15.9002 7.95005C15.5489 7.95005 15.2642 8.2348 15.2642 8.58606C15.2642 8.93732 14.9794 9.22207 14.6282 9.22207C14.2769 9.22207 13.9921 9.50682 13.9921 9.85808C13.9921 10.2093 13.7074 10.4941 13.3561 10.4941H11.9251C11.6617 10.4941 11.4481 10.7077 11.4481 10.9711C11.4481 11.2345 11.2345 11.4481 10.9711 11.4481H10.8121C10.4608 11.4481 10.1761 11.7329 10.1761 12.0841V12.7201V13.3561C10.1761 13.7074 9.89132 13.9922 9.54006 13.9922C9.1888 13.9922 8.90405 14.2769 8.90405 14.6282V15.1052C8.90405 15.3686 9.11762 15.5822 9.38106 15.5822C9.64451 15.5822 9.85807 15.7957 9.85807 16.0592V17.1722C9.85807 17.5235 10.1428 17.8082 10.4941 17.8082C10.8453 17.8082 11.1301 18.093 11.1301 18.4442C11.1301 18.7955 11.4148 19.0802 11.7661 19.0802C12.1174 19.0802 12.4021 19.365 12.4021 19.7163V21.3063C12.4021 21.4819 12.5445 21.6243 12.7201 21.6243H14.0467C14.5435 21.6243 14.9462 22.027 14.9462 22.5237Z" fill="#729F64" stroke="#729F64"/>
</svg>
