<svg width="34" height="34" viewBox="0 0 34 34" fill="none" xmlns="http://www.w3.org/2000/svg">
<rect width="34" height="34" rx="17" fill="#C7C7C7"/>
<path d="M10.0132 22.4189H23.1699C23.9502 22.4189 24.4233 22.0205 24.4233 21.4146C24.4233 20.5845 23.5767 19.8374 22.8628 19.0986C22.3149 18.5259 22.1655 17.3472 22.0991 16.3926C22.041 13.2051 21.1943 11.0137 18.9863 10.2168C18.6709 9.12939 17.8159 8.27441 16.5874 8.27441C15.3672 8.27441 14.5039 9.12939 14.1968 10.2168C11.9888 11.0137 11.1421 13.2051 11.084 16.3926C11.0176 17.3472 10.8682 18.5259 10.3203 19.0986C9.59814 19.8374 8.75977 20.5845 8.75977 21.4146C8.75977 22.0205 9.22461 22.4189 10.0132 22.4189ZM16.5874 25.7476C17.9985 25.7476 19.0278 24.7183 19.1357 23.5562H14.0474C14.1553 24.7183 15.1846 25.7476 16.5874 25.7476Z" fill="white"/>
</svg>
