<svg width="32" height="40" viewBox="0 0 32 40" fill="none" xmlns="http://www.w3.org/2000/svg">
<g clip-path="url(#clip0_762_6690)">
<path d="M15.6123 36.7346C15.6123 36.7346 15.6283 34.4871 15.6935 32.639C15.7394 31.3374 16.3948 30.1494 17.4118 29.3358V29.3358C18.036 28.8365 18.7765 28.4895 19.5603 28.3328L20.4683 28.1512C20.7678 28.0913 21.0611 28.0041 21.3447 27.8906L22.8555 27.2863C23.263 27.1233 23.6473 26.9073 23.9985 26.6439L25.5103 25.5101L26.1848 24.9705C27.3708 24.0217 28.0613 22.5851 28.0613 21.0662V20.9183V18.5272C28.0613 17.751 27.8806 16.9854 27.5334 16.2911L27.4038 16.0318C27.1634 15.5511 26.8472 15.1123 26.4672 14.7323L24.84 13.1051C24.6071 12.8723 24.3979 12.617 24.2152 12.3431L23.9499 11.945C23.632 11.4682 23.3984 10.9402 23.2594 10.3842L22.9593 9.18358L22.6252 7.84728C22.5086 7.38108 22.3128 6.93838 22.0462 6.53854V6.53854C21.6415 5.93147 21.0854 5.44053 20.4328 5.11424L19.2801 4.53788C18.6799 4.23778 18.0181 4.08154 17.347 4.08154V4.08154H13.2654" stroke="white" stroke-width="3"/>
<path d="M11.2246 27.5509H9.31981C8.23796 27.5509 7.18529 27.2 6.31981 26.5509L5.61233 26.0203L5.17414 25.6917C4.14547 24.9202 3.45357 23.782 3.24217 22.5137L3.12934 21.8367C3.08406 21.565 3.06131 21.2901 3.06131 21.0147V19.8979V19.0374C3.06131 18.2612 3.24203 17.4956 3.58917 16.8013L3.71885 16.542C3.95919 16.0613 4.27545 15.6225 4.65546 15.2425L6.28265 13.6153C6.51547 13.3825 6.72473 13.1272 6.90737 12.8533L7.17274 12.4552C7.49064 11.9784 7.7242 11.4504 7.8632 10.8944L8.16335 9.69379L8.4635 8.49318C8.6025 7.93718 8.83606 7.40922 9.15396 6.93236L9.21888 6.83498C9.53331 6.36333 9.92565 5.94859 10.3791 5.60848L11.4825 4.78094C11.6504 4.65507 11.8292 4.54455 12.0168 4.45073V4.45073C12.5024 4.20794 13.0378 4.08154 13.5807 4.08154H18.3674" stroke="white" stroke-width="3"/>
</g>
<defs>
<clipPath id="clip0_762_6690">
<rect width="31.6327" height="39.7959" fill="white"/>
</clipPath>
</defs>
</svg>
