<svg width="50" height="50" viewBox="0 0 50 50" fill="none" xmlns="http://www.w3.org/2000/svg">
<g clip-path="url(#clip0_762_6688)">
<path d="M24.6123 41.7346C24.6123 41.7346 24.6283 39.4871 24.6935 37.639C24.7394 36.3374 25.3948 35.1494 26.4118 34.3358V34.3358C27.036 33.8365 27.7765 33.4895 28.5603 33.3328L29.4683 33.1512C29.7678 33.0913 30.0611 33.0041 30.3447 32.8906L31.8555 32.2863C32.263 32.1233 32.6473 31.9073 32.9985 31.6439L34.5103 30.5101L35.1848 29.9705C36.3708 29.0217 37.0613 27.5851 37.0613 26.0662V25.9183V23.5272C37.0613 22.751 36.8806 21.9854 36.5334 21.2911L36.4038 21.0318C36.1634 20.5511 35.8472 20.1123 35.4672 19.7323L33.84 18.1051C33.6071 17.8723 33.3979 17.617 33.2152 17.3431L32.9499 16.945C32.632 16.4682 32.3984 15.9402 32.2594 15.3842L31.9593 14.1836L31.6252 12.8473C31.5086 12.3811 31.3128 11.9384 31.0462 11.5385V11.5385C30.6415 10.9315 30.0854 10.4405 29.4328 10.1142L28.2801 9.53788C27.6799 9.23778 27.0181 9.08154 26.347 9.08154V9.08154H22.2654" stroke="white" stroke-width="3"/>
<path d="M20.2246 32.5509H18.3198C17.238 32.5509 16.1853 32.2 15.3198 31.5509L14.6123 31.0203L14.1741 30.6917C13.1455 29.9202 12.4536 28.782 12.2422 27.5137L12.1293 26.8367C12.0841 26.565 12.0613 26.2901 12.0613 26.0147V24.8979V24.0374C12.0613 23.2612 12.242 22.4956 12.5892 21.8013L12.7189 21.542C12.9592 21.0613 13.2754 20.6225 13.6555 20.2425L15.2827 18.6153C15.5155 18.3825 15.7247 18.1272 15.9074 17.8533L16.1727 17.4552C16.4906 16.9784 16.7242 16.4504 16.8632 15.8944L17.1634 14.6938L17.4635 13.4932C17.6025 12.9372 17.8361 12.4092 18.154 11.9324L18.2189 11.835C18.5333 11.3633 18.9257 10.9486 19.3791 10.6085L20.4825 9.78094C20.6504 9.65507 20.8292 9.54455 21.0168 9.45073V9.45073C21.5024 9.20794 22.0378 9.08154 22.5807 9.08154H27.3674" stroke="white" stroke-width="3"/>
</g>
<defs>
<clipPath id="clip0_762_6688">
<rect width="31.6327" height="39.7959" fill="white" transform="translate(9 5)"/>
</clipPath>
</defs>
</svg>
